Coordinates
version=1
nRows=8
nColumns=36
inDegrees=yes

Units are S.I. units (second, meters, Newtons, ...)
If the header above contains a line with 'inDegrees', this indicates whether rotational values are in degrees (yes) or radians (no).

endheader
time	pelvis_tilt	pelvis_list	pelvis_rotation	pelvis_tx	pelvis_ty	pelvis_tz	hip_flexion_r	hip_adduction_r	hip_rotation_r	knee_angle_r	knee_angle_r_beta	ankle_angle_r	subtalar_angle_r	mtp_angle_r	hip_flexion_l	hip_adduction_l	hip_rotation_l	knee_angle_l	knee_angle_l_beta	ankle_angle_l	subtalar_angle_l	mtp_angle_l	lumbar_extension	lumbar_bending	lumbar_rotation	arm_flex_r	arm_add_r	arm_rot_r	elbow_flex_r	pro_sup_r	arm_flex_l	arm_add_l	arm_rot_l	elbow_flex_l	pro_sup_l
      1.02000000	    -10.59599054	     -0.12607900	      6.44289695	     -0.55232707	      1.06445639	     -0.59814239	     38.46157911	     -4.77241697	      1.50275111	     37.74793600	      0.65882577	      3.93445653	     -8.10373879	     -7.43731288	     35.54583745	     -3.94344401	      0.55821732	     38.13190718	      0.66552733	     -2.28162636	      6.79381364	     -7.43731288	    -23.16926869	      2.36647871	     -3.50919460	    -59.89474019	    -26.70705187	    -51.84939810	    132.01121337	    108.33097434	    -63.24326816	    -60.31791783	    -45.78493269	    129.58826570	    100.62787109
      1.03000000	    -10.83739522	     -0.23743861	      6.66456374	     -0.54038612	      1.04835205	     -0.59856425	     38.42503065	     -4.97710113	      1.38810381	     35.12912217	      0.61311885	      5.17909726	     -7.72729408	     -7.44230189	     36.20238659	     -4.01966003	     -0.18385702	     35.76531779	      0.62422255	     -3.07456054	      8.03109523	     -7.44230189	    -23.04096294	      2.33036636	     -5.21753912	    -60.81344530	    -26.79723182	    -49.83784537	    131.22955706	    108.61473834	    -70.30569625	    -54.57694774	    -50.70247372	    130.94399389	    101.50900242
      1.04000000	    -10.88790146	     -0.31754060	      6.83320792	     -0.52819115	      1.03144336	     -0.59888650	     38.23662743	     -5.17840085	      1.07912193	     32.90068786	      0.57422533	      6.34208855	     -7.47917655	     -7.44505041	     36.62261033	     -4.16058311	     -1.28224550	     33.60503096	      0.58651844	     -3.48894977	      9.12298063	     -7.44505041	    -22.94073484	      2.31664200	     -6.13264541	    -62.19825234	    -26.01069394	    -48.49512925	    130.71673720	    108.98340912	    -74.52105394	    -49.80179903	    -52.88431746	    131.70337726	    102.44856485
      1.05000000	    -10.94896737	     -0.45791150	      7.09159407	     -0.51597691	      1.01329442	     -0.59955690	     38.26701578	     -5.44493129	      0.41507738	     31.38125999	      0.54770631	      6.82953273	     -7.69015937	     -7.44480121	     37.17776132	     -4.21952264	     -2.22757081	     31.95991317	      0.55780571	     -3.30502367	      9.22114361	     -7.44480121	    -22.65528513	      2.65969575	     -5.82660899	    -64.69080062	    -23.56055139	    -48.15154496	    130.93378354	    109.26782325	    -76.28596627	    -47.15264713	    -52.50736233	    132.00909541	    102.71056556
      1.06000000	    -10.68695817	     -0.65508120	      7.16390170	     -0.50343712	      0.99479917	     -0.59967194	     37.76630134	     -5.36903751	      0.21649197	     29.78871926	      0.51991123	      8.37141093	     -7.38701601	     -7.44649183	     37.48408696	     -4.75706370	     -3.96808839	     30.77175034	      0.53706836	     -3.02560789	     11.47773708	     -7.44649183	    -22.89676456	      2.58495029	     -6.86402914	    -64.85419674	    -23.06612700	    -47.08988746	    130.13984191	    110.15792049	    -79.18898219	    -41.47779947	    -54.09136927	    132.50051479	    103.56507723
      1.07000000	    -10.47364535	     -0.84797837	      7.29542801	     -0.49119815	      0.97515176	     -0.60014886	     37.61929175	     -5.39462256	     -0.22257514	     29.02971471	      0.50666410	      9.61587668	     -6.94590892	     -7.44841251	     37.94456012	     -5.01204474	     -4.95473405	     29.92785687	      0.52233964	     -2.80120529	     11.77588890	     -7.44841251	    -23.01810296	      2.75524299	     -6.89759980	    -65.58946998	    -21.15561782	    -46.55742618	    129.68126838	    110.70061627	    -80.23478004	    -37.70025228	    -54.07348207	    132.56003011	    104.06059132
      1.08000000	    -10.14514115	     -1.05570115	      7.33984266	     -0.47919647	      0.95481882	     -0.60060144	     37.53182659	     -5.34641486	     -0.66814230	     28.85372420	      0.50359249	     10.75899816	     -6.22717716	     -7.45119685	     38.38301219	     -5.26248203	     -5.62688377	     29.52285917	      0.51527110	     -2.28011275	     11.56210384	     -7.45119685	    -23.34146981	      2.94896835	     -6.66353167	    -65.71437219	    -19.10357075	    -45.96874019	    128.86295676	    110.94433511	    -80.39932432	    -34.31352498	    -53.68333008	    132.50837914	    104.43383976
      1.09000000	     -9.69807193	     -1.30076953	      7.29480787	     -0.46756099	      0.93389294	     -0.60098005	     37.52010913	     -5.17939652	     -0.94579899	     29.23413907	      0.51023198	     11.43120350	     -6.20061218	     -7.45318987	     38.94930476	     -5.55372897	     -5.99578748	     29.93894950	      0.52253324	     -1.32876811	     10.83845263	     -7.45318987	    -23.89397346	      3.24655925	     -6.09249383	    -65.23541689	    -16.81802400	    -45.45908794	    127.87711416	    110.17286829	    -79.54625697	    -31.51180844	    -52.81472461	    132.18488578	    103.92020065
